<?xml version="1.0" encoding="utf-8"?>
<!-- Generator: Adobe Illustrator 27.5.0, SVG Export Plug-In . SVG Version: 6.00 Build 0)  -->
<svg version="1.1" xmlns="http://www.w3.org/2000/svg" xmlns:xlink="http://www.w3.org/1999/xlink" x="0px" y="0px"
	 viewBox="0 0 750 500" style="enable-background:new 0 0 750 500;" xml:space="preserve">
<g id="BACKGROUND">
	<rect style="fill:#FFFFFF;" width="750" height="500"/>
</g>
<g id="OBJECTS">
	<g>
		<g>
			<path style="fill:#D98A49;" d="M67.697,305.21c-1.186,0-2.147-0.961-2.147-2.147v-6.44c0-1.186,0.961-2.147,2.147-2.147
				c1.186,0,2.147,0.961,2.147,2.147v6.44C69.844,304.249,68.883,305.21,67.697,305.21z"/>
		</g>
		<path style="fill:#2C9C8D;" d="M204.882,364.39c-1.186,0-2.147-0.961-2.147-2.147v-13.108c0-1.186,0.961-2.147,2.147-2.147
			s2.147,0.961,2.147,2.147v13.108C207.029,363.429,206.068,364.39,204.882,364.39z"/>
		<path style="fill:#2C9C8D;" d="M204.882,338.175c-1.186,0-2.147-0.961-2.147-2.147V322.92c0-1.186,0.961-2.147,2.147-2.147
			s2.147,0.961,2.147,2.147v13.108C207.029,337.214,206.068,338.175,204.882,338.175z"/>
		<path style="fill:#2C9C8D;" d="M204.882,311.959c-1.186,0-2.147-0.961-2.147-2.147v-13.108c0-1.186,0.961-2.147,2.147-2.147
			s2.147,0.961,2.147,2.147v13.108C207.029,310.998,206.068,311.959,204.882,311.959z"/>
		<path style="fill:#2C9C8D;" d="M204.882,285.743c-1.186,0-2.147-0.961-2.147-2.147v-13.109c0-1.186,0.961-2.147,2.147-2.147
			s2.147,0.961,2.147,2.147v13.109C207.029,284.782,206.068,285.743,204.882,285.743z"/>
		<path style="fill:#D98A49;" d="M67.697,285.661c-1.186,0-2.147-0.961-2.147-2.147v-13.108c0-1.186,0.961-2.147,2.147-2.147
			c1.186,0,2.147,0.961,2.147,2.147v13.108C69.844,284.7,68.883,285.661,67.697,285.661z"/>
		<path style="fill:#2C9C8D;" d="M204.882,259.527c-1.186,0-2.147-0.961-2.147-2.147v-13.108c0-1.186,0.961-2.147,2.147-2.147
			s2.147,0.961,2.147,2.147v13.108C207.029,258.566,206.068,259.527,204.882,259.527z"/>
		<path style="fill:#D98A49;" d="M67.697,259.445c-1.186,0-2.147-0.961-2.147-2.147V244.19c0-1.186,0.961-2.147,2.147-2.147
			c1.186,0,2.147,0.961,2.147,2.147v13.108C69.844,258.484,68.883,259.445,67.697,259.445z"/>
		<path style="fill:#2C9C8D;" d="M204.882,233.311c-1.186,0-2.147-0.961-2.147-2.147v-7.468c0-1.81-0.086-3.635-0.257-5.426
			c-0.112-1.181,0.755-2.228,1.934-2.34c1.174-0.102,2.229,0.755,2.34,1.935c0.182,1.925,0.275,3.887,0.275,5.831v7.468
			C207.029,232.35,206.068,233.311,204.882,233.311z"/>
		<path style="fill:#D98A49;" d="M67.697,233.23c-1.186,0-2.147-0.961-2.147-2.147v-7.387c0-1.967,0.096-3.957,0.284-5.915
			c0.113-1.181,1.166-2.054,2.342-1.931c1.181,0.113,2.045,1.162,1.931,2.342c-0.175,1.821-0.264,3.673-0.264,5.504v7.387
			C69.844,232.268,68.883,233.23,67.697,233.23z"/>
		<path style="fill:#2C9C8D;" d="M201.947,207.414c-0.904,0-1.745-0.575-2.04-1.481c-1.297-3.969-3.042-7.838-5.189-11.501
			c-0.6-1.023-0.256-2.338,0.767-2.938c1.021-0.598,2.337-0.256,2.937,0.767c2.301,3.926,4.174,8.078,5.565,12.338
			c0.368,1.127-0.246,2.339-1.374,2.707C202.392,207.38,202.167,207.414,201.947,207.414z"/>
		<path style="fill:#D98A49;" d="M70.658,207.338c-0.221,0-0.447-0.035-0.669-0.108c-1.127-0.369-1.74-1.582-1.37-2.709
			c1.399-4.262,3.277-8.412,5.582-12.333c0.601-1.021,1.917-1.362,2.939-0.762c1.021,0.601,1.363,1.917,0.762,2.939
			c-2.151,3.656-3.902,7.524-5.205,11.494C72.401,206.764,71.561,207.338,70.658,207.338z"/>
		<path style="fill:#2C9C8D;" d="M188.832,184.945c-0.587,0-1.171-0.239-1.595-0.709c-2.808-3.114-5.96-5.984-9.365-8.534
			c-0.949-0.71-1.143-2.055-0.432-3.005c0.709-0.95,2.056-1.143,3.005-0.432c3.628,2.715,6.986,5.775,9.981,9.094
			c0.794,0.881,0.725,2.238-0.156,3.032C189.859,184.762,189.345,184.945,188.832,184.945z"/>
		<path style="fill:#D98A49;" d="M83.802,184.884c-0.513,0-1.028-0.183-1.439-0.554c-0.88-0.796-0.948-2.153-0.153-3.032
			c3-3.317,6.361-6.371,9.991-9.081c0.95-0.709,2.295-0.514,3.005,0.437c0.709,0.95,0.513,2.295-0.437,3.005
			c-3.407,2.543-6.561,5.409-9.373,8.519C84.971,184.646,84.388,184.884,83.802,184.884z"/>
		<path style="fill:#2C9C8D;" d="M167.985,169.312c-0.316,0-0.637-0.07-0.941-0.219c-3.789-1.852-7.782-3.364-11.868-4.496
			c-1.143-0.316-1.813-1.499-1.496-2.642c0.316-1.143,1.499-1.814,2.642-1.496c4.34,1.202,8.582,2.809,12.608,4.776
			c1.065,0.521,1.507,1.806,0.986,2.871C169.543,168.868,168.779,169.312,167.985,169.312z"/>
		<path style="fill:#D98A49;" d="M104.665,169.277c-0.796,0-1.56-0.444-1.931-1.207c-0.52-1.066-0.076-2.351,0.99-2.87
			c4.026-1.962,8.269-3.564,12.613-4.763c1.146-0.318,2.325,0.356,2.641,1.499c0.315,1.143-0.356,2.325-1.499,2.641
			c-4.09,1.129-8.085,2.636-11.875,4.483C105.3,169.207,104.98,169.277,104.665,169.277z"/>
		<path style="fill:#D98A49;" d="M142.874,162.338c-0.065,0-0.129-0.002-0.195-0.008c-4.195-0.376-8.504-0.379-12.704-0.008
			c-1.176,0.106-2.224-0.768-2.328-1.949c-0.105-1.182,0.768-2.223,1.949-2.328c4.456-0.395,9.02-0.391,13.468,0.008
			c1.181,0.107,2.052,1.15,1.946,2.33C144.91,161.499,143.973,162.338,142.874,162.338z"/>
		<g>
			<path style="fill:#2C9C8D;" d="M204.882,384.014c-1.186,0-2.147-0.961-2.147-2.147v-6.44c0-1.186,0.961-2.147,2.147-2.147
				s2.147,0.961,2.147,2.147v6.44C207.029,383.053,206.068,384.014,204.882,384.014z"/>
		</g>
		<g>
			<path style="fill:#76BBDA;" d="M342.219,232.283c-1.186,0-2.147-0.961-2.147-2.147v-6.44c0-1.186,0.961-2.147,2.147-2.147
				s2.147,0.961,2.147,2.147v6.44C344.365,231.322,343.404,232.283,342.219,232.283z"/>
		</g>
		<path style="fill:#76BBDA;" d="M273.626,447.811c-2.017,0-4.058-0.081-6.067-0.242c-1.182-0.095-2.063-1.129-1.969-2.311
			c0.095-1.182,1.131-2.049,2.311-1.969c4.202,0.337,8.495,0.298,12.68-0.11c1.192-0.109,2.231,0.748,2.345,1.928
			c0.115,1.181-0.748,2.231-1.928,2.346C278.562,447.691,276.081,447.811,273.626,447.811z"/>
		<path style="fill:#2C9C8D;" d="M254.859,445.369c-0.184,0-0.369-0.023-0.554-0.073c-4.345-1.158-8.595-2.719-12.635-4.64
			c-1.07-0.509-1.525-1.79-1.016-2.861c0.51-1.069,1.789-1.526,2.861-1.016c3.802,1.809,7.804,3.278,11.895,4.368
			c1.145,0.305,1.827,1.482,1.522,2.627C256.676,444.734,255.807,445.369,254.859,445.369z"/>
		<path style="fill:#76BBDA;" d="M293.621,445.03c-0.934,0-1.794-0.615-2.064-1.558c-0.325-1.14,0.335-2.328,1.475-2.654
			c4.07-1.162,8.044-2.702,11.81-4.578c1.064-0.528,2.35-0.096,2.879,0.965c0.528,1.062,0.096,2.35-0.965,2.879
			c-4.002,1.992-8.223,3.628-12.545,4.863C294.014,445.003,293.816,445.03,293.621,445.03z"/>
		<path style="fill:#2C9C8D;" d="M231.365,434.176c-0.439,0-0.883-0.134-1.265-0.414c-3.65-2.668-7.036-5.684-10.065-8.963
			c-0.805-0.87-0.751-2.229,0.12-3.033c0.87-0.806,2.23-0.751,3.033,0.12c2.842,3.075,6.02,5.905,9.447,8.411
			c0.957,0.699,1.166,2.043,0.465,3C232.679,433.872,232.027,434.176,231.365,434.176z"/>
		<path style="fill:#76BBDA;" d="M316.898,433.422c-0.648,0-1.289-0.292-1.711-0.848c-0.718-0.944-0.533-2.291,0.41-3.008
			c3.379-2.568,6.503-5.455,9.283-8.582c0.787-0.886,2.143-0.967,3.031-0.178c0.886,0.787,0.966,2.144,0.178,3.031
			c-2.964,3.334-6.293,6.412-9.893,9.147C317.807,433.28,317.351,433.422,316.898,433.422z"/>
		<path style="fill:#2C9C8D;" d="M213.76,415.057c-0.727,0-1.436-0.369-1.84-1.037c-2.346-3.888-4.27-8.004-5.718-12.237
			c-0.384-1.122,0.214-2.342,1.336-2.726c1.124-0.383,2.342,0.214,2.726,1.336c1.35,3.945,3.144,7.783,5.333,11.409
			c0.612,1.016,0.286,2.335-0.729,2.948C214.521,414.957,214.139,415.057,213.76,415.057z"/>
		<path style="fill:#76BBDA;" d="M334.129,413.976c-0.364,0-0.733-0.092-1.07-0.287c-1.027-0.592-1.38-1.904-0.788-2.932
			c2.115-3.669,3.83-7.545,5.097-11.516c0.361-1.13,1.567-1.751,2.698-1.393c1.13,0.361,1.753,1.568,1.393,2.698
			c-1.36,4.263-3.199,8.42-5.467,12.355C335.593,413.591,334.871,413.976,334.129,413.976z"/>
		<path style="fill:#76BBDA;" d="M341.991,389.247c-0.063,0-0.127-0.003-0.19-0.008c-1.182-0.104-2.055-1.145-1.951-2.326
			c0.147-1.671,0.221-3.369,0.221-5.046v-7.837c0-1.186,0.961-2.147,2.147-2.147s2.147,0.961,2.147,2.147v7.837
			c0,1.802-0.08,3.626-0.238,5.421C344.029,388.405,343.092,389.247,341.991,389.247z"/>
		<path style="fill:#76BBDA;" d="M342.219,363.095c-1.186,0-2.147-0.961-2.147-2.147v-13.081c0-1.186,0.961-2.147,2.147-2.147
			s2.147,0.961,2.147,2.147v13.081C344.365,362.134,343.404,363.095,342.219,363.095z"/>
		<path style="fill:#76BBDA;" d="M342.219,336.932c-1.186,0-2.147-0.961-2.147-2.147v-13.081c0-1.186,0.961-2.147,2.147-2.147
			s2.147,0.961,2.147,2.147v13.081C344.365,335.971,343.404,336.932,342.219,336.932z"/>
		<path style="fill:#76BBDA;" d="M342.219,310.77c-1.186,0-2.147-0.961-2.147-2.147v-13.081c0-1.186,0.961-2.147,2.147-2.147
			s2.147,0.961,2.147,2.147v13.081C344.365,309.809,343.404,310.77,342.219,310.77z"/>
		<path style="fill:#76BBDA;" d="M342.219,284.608c-1.186,0-2.147-0.961-2.147-2.147v-13.082c0-1.186,0.961-2.147,2.147-2.147
			s2.147,0.961,2.147,2.147v13.082C344.365,283.647,343.404,284.608,342.219,284.608z"/>
		<path style="fill:#76BBDA;" d="M342.219,258.444c-1.186,0-2.147-0.961-2.147-2.147v-13.081c0-1.186,0.961-2.147,2.147-2.147
			s2.147,0.961,2.147,2.147v13.081C344.365,257.483,343.404,258.444,342.219,258.444z"/>
		<g>
			<path style="fill:#2C9C8D;" d="M205.379,390.442c-1.082,0-2.012-0.815-2.132-1.915c-0.239-2.202-0.361-4.443-0.361-6.66
				c0-1.186,0.961-2.147,2.147-2.147c1.186,0,2.147,0.961,2.147,2.147c0,2.063,0.113,4.148,0.335,6.196
				c0.128,1.179-0.724,2.238-1.902,2.366C205.535,390.438,205.456,390.442,205.379,390.442z"/>
		</g>
		<path style="fill:#76BBDA;" d="M342.37,225.842c-1.186,0-2.147-0.961-2.147-2.147c0-2.217,0.122-4.458,0.361-6.661
			c0.128-1.179,1.173-2.029,2.366-1.903c1.179,0.128,2.031,1.187,1.903,2.366c-0.222,2.05-0.335,4.135-0.335,6.198
			C344.516,224.882,343.555,225.842,342.37,225.842z"/>
		<path style="fill:#76BBDA;" d="M345.528,206.746c-0.229,0-0.462-0.037-0.691-0.115c-1.122-0.382-1.723-1.601-1.342-2.724
			c1.431-4.209,3.332-8.308,5.651-12.181c0.609-1.017,1.928-1.348,2.944-0.739c1.017,0.609,1.348,1.927,0.739,2.944
			c-2.163,3.613-3.935,7.435-5.269,11.358C347.257,206.182,346.422,206.746,345.528,206.746z"/>
		<path style="fill:#C73C3D;" d="M476.382,206.703c-0.894,0-1.728-0.563-2.032-1.456c-1.336-3.92-3.111-7.739-5.276-11.349
			c-0.611-1.017-0.28-2.335,0.736-2.945c1.014-0.61,2.335-0.281,2.945,0.736c2.322,3.87,4.226,7.966,5.659,12.174
			c0.382,1.122-0.217,2.341-1.34,2.724C476.844,206.665,476.611,206.703,476.382,206.703z"/>
		<path style="fill:#76BBDA;" d="M358.751,184.58c-0.517,0-1.037-0.186-1.449-0.564c-0.875-0.801-0.934-2.158-0.133-3.033
			c2.994-3.27,6.343-6.282,9.954-8.954c0.953-0.706,2.298-0.504,3.003,0.449c0.705,0.953,0.504,2.298-0.449,3.003
			c-3.39,2.508-6.533,5.335-9.342,8.402C359.912,184.345,359.332,184.58,358.751,184.58z"/>
		<path style="fill:#C73C3D;" d="M463.142,184.546c-0.581,0-1.16-0.234-1.583-0.696c-2.813-3.068-5.96-5.894-9.353-8.399
			c-0.953-0.704-1.156-2.048-0.451-3.002c0.704-0.953,2.046-1.156,3.002-0.451c3.613,2.668,6.967,5.68,9.966,8.951
			c0.801,0.874,0.742,2.231-0.132,3.033C464.18,184.359,463.66,184.546,463.142,184.546z"/>
		<path style="fill:#76BBDA;" d="M379.509,169.195c-0.798,0-1.564-0.447-1.934-1.213c-0.517-1.067-0.07-2.351,0.997-2.867
			c4-1.935,8.213-3.517,12.521-4.701c1.146-0.312,2.324,0.358,2.639,1.502c0.314,1.143-0.358,2.325-1.502,2.639
			c-4.056,1.115-8.023,2.603-11.788,4.424C380.141,169.125,379.823,169.195,379.509,169.195z"/>
		<path style="fill:#C73C3D;" d="M442.36,169.168c-0.313,0-0.631-0.069-0.932-0.215c-3.768-1.819-7.737-3.305-11.796-4.416
			c-1.143-0.313-1.816-1.493-1.504-2.637c0.313-1.142,1.487-1.818,2.637-1.504c4.311,1.179,8.527,2.758,12.529,4.691
			c1.068,0.516,1.515,1.799,1,2.866C443.925,168.721,443.158,169.168,442.36,169.168z"/>
		<path style="fill:#C73C3D;" d="M404.436,162.333c-1.099,0-2.036-0.84-2.136-1.956c-0.105-1.181,0.767-2.224,1.948-2.329
			c4.402-0.392,8.947-0.394,13.359-0.006c1.181,0.104,2.055,1.145,1.951,2.326c-0.104,1.181-1.146,2.059-2.326,1.951
			c-4.163-0.366-8.451-0.364-12.603,0.006C404.564,162.33,404.499,162.333,404.436,162.333z"/>
		<path style="fill:#C73C3D;" d="M479.555,225.842c-1.186,0-2.147-0.961-2.147-2.147c0-2.063-0.113-4.148-0.336-6.198
			c-0.128-1.178,0.724-2.237,1.903-2.366c1.17-0.126,2.238,0.724,2.366,1.903c0.239,2.203,0.361,4.444,0.361,6.661
			C481.702,224.882,480.74,225.842,479.555,225.842z"/>
		<g>
			<path style="fill:#B5C83A;" d="M616.891,311.368c-1.186,0-2.147-0.961-2.147-2.147v-6.44c0-1.186,0.961-2.147,2.147-2.147
				c1.186,0,2.147,0.961,2.147,2.147v6.44C619.038,310.407,618.077,311.368,616.891,311.368z"/>
		</g>
		<path style="fill:#B5C83A;" d="M548.299,447.811c-2.317,0-4.652-0.107-6.942-0.317c-1.181-0.108-2.05-1.153-1.941-2.334
			c0.108-1.181,1.139-2.067,2.334-1.941c4.183,0.383,8.496,0.396,12.698,0.034c1.173-0.096,2.221,0.775,2.323,1.956
			c0.101,1.181-0.774,2.22-1.956,2.323C552.662,447.716,550.47,447.81,548.299,447.811z"/>
		<path style="fill:#B5C83A;" d="M567.508,445.25c-0.944,0-1.81-0.627-2.07-1.582c-0.312-1.144,0.361-2.324,1.505-2.637
			c4.086-1.117,8.083-2.614,11.878-4.45c1.068-0.517,2.351-0.07,2.867,0.997c0.517,1.068,0.07,2.351-0.997,2.867
			c-4.032,1.951-8.277,3.542-12.616,4.728C567.886,445.224,567.695,445.25,567.508,445.25z"/>
		<path style="fill:#C73C3D;" d="M528.692,445.14c-0.191,0-0.385-0.026-0.579-0.08c-4.335-1.211-8.57-2.826-12.59-4.8
			c-1.064-0.522-1.503-1.809-0.98-2.874c0.523-1.063,1.807-1.501,2.874-0.98c3.783,1.858,7.771,3.379,11.852,4.518
			c1.141,0.32,1.809,1.504,1.49,2.646C530.495,444.518,529.632,445.14,528.692,445.14z"/>
		<path style="fill:#B5C83A;" d="M590.948,433.889c-0.657,0-1.304-0.299-1.726-0.867c-0.706-0.953-0.507-2.297,0.444-3.004
			c3.412-2.532,6.573-5.388,9.394-8.487c0.798-0.876,2.155-0.942,3.032-0.143c0.877,0.798,0.941,2.155,0.143,3.032
			c-3.007,3.305-6.375,6.348-10.009,9.046C591.841,433.752,591.392,433.889,590.948,433.889z"/>
		<path style="fill:#C73C3D;" d="M505.319,433.643c-0.449,0-0.902-0.14-1.288-0.431c-3.62-2.72-6.969-5.785-9.956-9.109
			c-0.792-0.882-0.72-2.239,0.162-3.031c0.882-0.794,2.24-0.721,3.031,0.162c2.802,3.117,5.945,5.992,9.343,8.547
			c0.948,0.712,1.139,2.058,0.426,3.005C506.615,433.347,505.971,433.643,505.319,433.643z"/>
		<path style="fill:#B5C83A;" d="M608.426,414.616c-0.372,0-0.749-0.096-1.093-0.3c-1.02-0.604-1.357-1.92-0.753-2.941
			c2.163-3.649,3.926-7.509,5.243-11.469c0.373-1.125,1.586-1.735,2.714-1.36c1.125,0.373,1.734,1.588,1.36,2.714
			c-1.412,4.251-3.304,8.391-5.623,12.304C609.874,414.24,609.159,414.616,608.426,414.616z"/>
		<path style="fill:#C73C3D;" d="M487.959,414.259c-0.738,0-1.457-0.381-1.856-1.065c-2.291-3.925-4.154-8.078-5.54-12.341
			c-0.366-1.128,0.251-2.339,1.379-2.705c1.124-0.364,2.338,0.25,2.705,1.379c1.29,3.972,3.027,7.843,5.164,11.504
			c0.598,1.024,0.251,2.339-0.772,2.936C488.699,414.165,488.327,414.259,487.959,414.259z"/>
		<path style="fill:#B5C83A;" d="M616.596,389.952c-0.071,0-0.144-0.003-0.217-0.011c-1.179-0.118-2.039-1.171-1.921-2.351
			c0.19-1.892,0.286-3.817,0.286-5.723v-7.149c0-1.186,0.961-2.147,2.147-2.147c1.186,0,2.147,0.961,2.147,2.147v7.149
			c0,2.049-0.103,4.118-0.308,6.153C618.619,389.126,617.686,389.952,616.596,389.952z"/>
		<path style="fill:#C73C3D;" d="M479.96,389.54c-1.095,0-2.031-0.834-2.135-1.947c-0.177-1.898-0.267-3.825-0.266-5.727v-7.562
			c0-1.186,0.961-2.147,2.147-2.147c1.186,0,2.147,0.961,2.147,2.147v7.563c-0.001,1.769,0.082,3.561,0.247,5.327
			c0.11,1.181-0.757,2.226-1.938,2.337C480.094,389.537,480.027,389.54,479.96,389.54z"/>
		<path style="fill:#B5C83A;" d="M616.891,363.766c-1.186,0-2.147-0.961-2.147-2.147V348.52c0-1.186,0.961-2.147,2.147-2.147
			c1.186,0,2.147,0.961,2.147,2.147v13.099C619.038,362.805,618.077,363.766,616.891,363.766z"/>
		<path style="fill:#C73C3D;" d="M479.706,363.351c-1.186,0-2.147-0.961-2.147-2.147v-13.099c0-1.186,0.961-2.147,2.147-2.147
			c1.186,0,2.147,0.961,2.147,2.147v13.099C481.852,362.39,480.891,363.351,479.706,363.351z"/>
		<path style="fill:#B5C83A;" d="M616.891,337.567c-1.186,0-2.147-0.961-2.147-2.147v-13.099c0-1.186,0.961-2.147,2.147-2.147
			c1.186,0,2.147,0.961,2.147,2.147v13.099C619.038,336.606,618.077,337.567,616.891,337.567z"/>
		<path style="fill:#C73C3D;" d="M479.706,337.152c-1.186,0-2.147-0.961-2.147-2.147v-13.099c0-1.186,0.961-2.147,2.147-2.147
			c1.186,0,2.147,0.961,2.147,2.147v13.099C481.852,336.191,480.891,337.152,479.706,337.152z"/>
		<path style="fill:#C73C3D;" d="M479.706,310.953c-1.186,0-2.147-0.961-2.147-2.147v-13.099c0-1.186,0.961-2.147,2.147-2.147
			c1.186,0,2.147,0.961,2.147,2.147v13.099C481.852,309.992,480.891,310.953,479.706,310.953z"/>
		<path style="fill:#C73C3D;" d="M479.706,284.755c-1.186,0-2.147-0.961-2.147-2.147v-13.099c0-1.186,0.961-2.147,2.147-2.147
			c1.186,0,2.147,0.961,2.147,2.147v13.099C481.852,283.794,480.891,284.755,479.706,284.755z"/>
		<path style="fill:#C73C3D;" d="M479.706,258.556c-1.186,0-2.147-0.961-2.147-2.147V243.31c0-1.186,0.961-2.147,2.147-2.147
			c1.186,0,2.147,0.961,2.147,2.147v13.099C481.852,257.595,480.891,258.556,479.706,258.556z"/>
		<g>
			<path style="fill:#C73C3D;" d="M479.706,232.283c-1.186,0-2.147-0.961-2.147-2.147v-6.44c0-1.186,0.961-2.147,2.147-2.147
				c1.186,0,2.147,0.961,2.147,2.147v6.44C481.852,231.322,480.891,232.283,479.706,232.283z"/>
		</g>
	</g>
	<path style="fill:#E7B251;" d="M149.115,117.238H54.534c-5.4,0-8.787-3.557-6.113-6.42l6.498-6.955
		c1.203-1.288,1.232-2.863,0.078-4.167l-6.964-7.865c-2.533-2.861,0.862-6.334,6.191-6.334h94.891c2.557,0,4.913,0.846,6.153,2.211
		l10.525,11.577c1.178,1.296,1.178,2.87,0,4.165l-10.525,11.577C154.028,116.391,151.672,117.238,149.115,117.238z"/>
	<path style="fill:#D98A49;" d="M135.219,117.238H40.639c-5.4,0-8.787-3.557-6.113-6.42l6.498-6.955
		c1.203-1.288,1.232-2.863,0.078-4.167l-6.964-7.865c-2.533-2.861,0.862-6.334,6.191-6.334h94.891c2.557,0,4.913,0.846,6.153,2.211
		l10.525,11.577c1.178,1.296,1.178,2.87,0,4.165l-10.525,11.577C140.132,116.391,137.776,117.238,135.219,117.238z"/>
	<path style="fill:#6BB3B8;" d="M286.412,117.238h-94.581c-5.4,0-8.787-3.557-6.113-6.42l6.498-6.955
		c1.203-1.288,1.232-2.863,0.078-4.167l-6.964-7.865c-2.533-2.861,0.862-6.334,6.191-6.334h94.891c2.557,0,4.913,0.846,6.153,2.211
		l10.525,11.577c1.178,1.296,1.178,2.87,0,4.165l-10.525,11.577C291.325,116.391,288.97,117.238,286.412,117.238z"/>
	<path style="fill:#2C9C8D;" d="M272.517,117.238h-94.581c-5.4,0-8.787-3.557-6.113-6.42l6.498-6.955
		c1.203-1.288,1.232-2.863,0.078-4.167l-6.964-7.865c-2.533-2.861,0.862-6.334,6.191-6.334h94.891c2.557,0,4.913,0.846,6.153,2.211
		l10.525,11.577c1.178,1.296,1.178,2.87,0,4.165l-10.525,11.577C277.43,116.391,275.074,117.238,272.517,117.238z"/>
	<path style="fill:#ADD6F5;" d="M423.71,117.238h-94.581c-5.4,0-8.787-3.557-6.113-6.42l6.498-6.955
		c1.203-1.288,1.232-2.863,0.078-4.167l-6.964-7.865c-2.533-2.861,0.862-6.334,6.191-6.334h94.891c2.557,0,4.913,0.846,6.153,2.211
		l10.525,11.577c1.178,1.296,1.178,2.87,0,4.165l-10.525,11.577C428.623,116.391,426.267,117.238,423.71,117.238z"/>
	<path style="fill:#76BBDA;" d="M409.814,117.238h-94.581c-5.4,0-8.787-3.557-6.113-6.42l6.498-6.955
		c1.203-1.288,1.232-2.863,0.078-4.167l-6.964-7.865c-2.533-2.861,0.862-6.334,6.191-6.334h94.891c2.557,0,4.913,0.846,6.153,2.211
		l10.525,11.577c1.178,1.296,1.178,2.87,0,4.165l-10.525,11.577C414.727,116.391,412.371,117.238,409.814,117.238z"/>
	<path style="fill:#CD5C5A;" d="M561.008,117.238h-94.581c-5.4,0-8.787-3.557-6.113-6.42l6.498-6.955
		c1.203-1.288,1.232-2.863,0.078-4.167l-6.964-7.865c-2.533-2.861,0.862-6.334,6.191-6.334h94.891c2.557,0,4.913,0.846,6.153,2.211
		l10.525,11.577c1.178,1.296,1.178,2.87,0,4.165l-10.525,11.577C565.92,116.391,563.565,117.238,561.008,117.238z"/>
	<path style="fill:#C73C3D;" d="M547.112,117.238h-94.581c-5.4,0-8.787-3.557-6.113-6.42l6.498-6.955
		c1.203-1.288,1.232-2.863,0.078-4.167l-6.964-7.865c-2.533-2.861,0.862-6.334,6.191-6.334h94.891c2.557,0,4.913,0.846,6.153,2.211
		l10.525,11.577c1.178,1.296,1.178,2.87,0,4.165l-10.525,11.577C552.025,116.391,549.669,117.238,547.112,117.238z"/>
	<path style="fill:#D6D94D;" d="M698.305,117.238h-94.58c-5.4,0-8.787-3.557-6.113-6.42l6.498-6.955
		c1.203-1.288,1.232-2.863,0.078-4.167l-6.964-7.865c-2.533-2.861,0.862-6.334,6.191-6.334h94.891c2.557,0,4.913,0.846,6.153,2.211
		l10.525,11.577c1.178,1.296,1.178,2.87,0,4.165l-10.525,11.577C703.218,116.391,700.862,117.238,698.305,117.238z"/>
	<path style="fill:#B5C83A;" d="M684.409,117.238h-94.581c-5.4,0-8.787-3.557-6.113-6.42l6.498-6.955
		c1.203-1.288,1.232-2.863,0.078-4.167l-6.964-7.865c-2.533-2.861,0.862-6.334,6.191-6.334h94.891c2.557,0,4.913,0.846,6.153,2.211
		l10.525,11.577c1.178,1.296,1.178,2.87,0,4.165l-10.525,11.577C689.322,116.391,686.966,117.238,684.409,117.238z"/>
	<g>
		<text transform="matrix(1 0 0 1 66.3373 105.2931)" style="fill:#FFFFFF; font-family:'Quicksand-Bold'; font-size:11.8367px;">AWARENESS</text>
	</g>
	<g>
		<text transform="matrix(1 0 0 1 193.4555 105.2931)" style="fill:#FFFFFF; font-family:'Quicksand-Bold'; font-size:11.8367px;">CONSIDERATION</text>
	</g>
	<g>
		<text transform="matrix(1 0 0 1 339.8412 105.2931)" style="fill:#FFFFFF; font-family:'Quicksand-Bold'; font-size:11.8367px;">ACQUISITION  </text>
	</g>
	<g>
		<text transform="matrix(1 0 0 1 485.9818 105.2931)" style="fill:#FFFFFF; font-family:'Quicksand-Bold'; font-size:11.8367px;">SERVICE</text>
	</g>
	<g>
		<text transform="matrix(1 0 0 1 623.7084 105.2931)" style="fill:#FFFFFF; font-family:'Quicksand-Bold'; font-size:11.8367px;">LOYALTY</text>
	</g>
	<g>
		<circle style="fill:#D98A49;" cx="67.697" cy="305.21" r="15.381"/>
		<text transform="matrix(1 0 0 1 90.0424 308.2921)" style="fill:#878786; font-family:'Quicksand-Bold'; font-size:11.0226px;">Touchpoint</text>
	</g>
	<g>
		<circle style="fill:#D98A49;" cx="75.078" cy="196.846" r="15.381"/>
		<text transform="matrix(1 0 0 1 97.4262 199.9289)" style="fill:#878786; font-family:'Quicksand-Bold'; font-size:11.0226px;">Touchpoint</text>
	</g>
	<g>
		<circle style="fill:#2C9C8D;" cx="206.36" cy="225.842" r="15.381"/>
		<text transform="matrix(1 0 0 1 228.7065 228.9259)" style="fill:#878786; font-family:'Quicksand-Bold'; font-size:11.0226px;">Touchpoint</text>
	</g>
	<g>
		<circle style="fill:#2C9C8D;" cx="204.926" cy="357.411" r="15.381"/>
		<text transform="matrix(1 0 0 1 227.2738 360.4933)" style="fill:#878786; font-family:'Quicksand-Bold'; font-size:11.0226px;">Touchpoint</text>
	</g>
	<g>
		<circle style="fill:#76BBDA;" cx="298.884" cy="440.522" r="15.381"/>
		<text transform="matrix(1 0 0 1 321.2289 443.6056)" style="fill:#878786; font-family:'Quicksand-Bold'; font-size:11.0226px;">Touchpoint</text>
	</g>
	<g>
		<circle style="fill:#76BBDA;" cx="341.555" cy="302.257" r="15.381"/>
		<text transform="matrix(1 0 0 1 363.9027 305.339)" style="fill:#878786; font-family:'Quicksand-Bold'; font-size:11.0226px;">Touchpoint</text>
	</g>
	<g>
		<circle style="fill:#C73C3D;" cx="436.271" cy="164.846" r="15.381"/>
		<text transform="matrix(1 0 0 1 458.6176 167.9299)" style="fill:#878786; font-family:'Quicksand-Bold'; font-size:11.0226px;">Touchpoint</text>
	</g>
	<g>
		<circle style="fill:#C73C3D;" cx="480.669" cy="277.042" r="15.381"/>
		<text transform="matrix(1 0 0 1 503.015 280.1261)" style="fill:#878786; font-family:'Quicksand-Bold'; font-size:11.0226px;">Touchpoint</text>
	</g>
	<g>
		<circle style="fill:#C73C3D;" cx="498.602" cy="427.359" r="15.381"/>
		<text transform="matrix(1 0 0 1 420.4613 430.4406)" style="fill:#878786; font-family:'Quicksand-Bold'; font-size:11.0226px;">Touchpoint</text>
	</g>
	<g>
		<circle style="fill:#B5C83A;" cx="615.398" cy="301.932" r="15.381"/>
		<text transform="matrix(1 0 0 1 637.7445 305.0158)" style="fill:#878786; font-family:'Quicksand-Bold'; font-size:11.0226px;">Touchpoint</text>
	</g>
	
		<text transform="matrix(1 0 0 1 260.7719 46.4367)" style="fill:#656565;stroke:#656565;stroke-width:0.5;stroke-miterlimit:10; font-family:'Quicksand-Bold'; font-size:21.5673px;">COSTUMER JOURNEY MAP</text>
	<g>
		<rect x="240.435" y="53.053" style="fill:none;" width="278.922" height="28.839"/>
		<text transform="matrix(1 0 0 1 242.3793 57.371)"><tspan x="0" y="0" style="fill:#9D9C9C; font-family:'Quicksand-Regular'; font-size:5.8351px;">Lorem ipsum dolor sit amet, consectetuer adipiscing elit, sed diam nonummy nibh euismod tincidunt ut </tspan><tspan x="96.409" y="7.002" style="fill:#9D9C9C; font-family:'Quicksand-Regular'; font-size:5.8351px;">laoreet dolore magna aliquam </tspan></text>
	</g>
	<g>
		<rect x="95.374" y="203.134" style="fill:none;" width="66.08" height="17.209"/>
		<text transform="matrix(1 0 0 1 95.3734 205.5031)"><tspan x="0" y="0" style="fill:#9D9C9C; font-family:'Quicksand-Regular'; font-size:3.2014px;">Lorem ipsum dolor sit amet, consectetuer </tspan><tspan x="0" y="3.842" style="fill:#9D9C9C; font-family:'Quicksand-Regular'; font-size:3.2014px;">adipiscing elit, sed diam nonummy nibh </tspan><tspan x="0" y="7.683" style="fill:#9D9C9C; font-family:'Quicksand-Regular'; font-size:3.2014px;">euismod tincidunt ut laoreet dolore magna </tspan><tspan x="0" y="11.524" style="fill:#9D9C9C; font-family:'Quicksand-Regular'; font-size:3.2014px;">aliquam </tspan></text>
	</g>
	<g>
		<rect x="88.644" y="311.987" style="fill:none;" width="66.08" height="17.209"/>
		<text transform="matrix(1 0 0 1 88.644 314.3556)"><tspan x="0" y="0" style="fill:#9D9C9C; font-family:'Quicksand-Regular'; font-size:3.2014px;">Lorem ipsum dolor sit amet, consectetuer </tspan><tspan x="0" y="3.842" style="fill:#9D9C9C; font-family:'Quicksand-Regular'; font-size:3.2014px;">adipiscing elit, sed diam nonummy nibh </tspan><tspan x="0" y="7.683" style="fill:#9D9C9C; font-family:'Quicksand-Regular'; font-size:3.2014px;">euismod tincidunt ut laoreet dolore magna </tspan><tspan x="0" y="11.524" style="fill:#9D9C9C; font-family:'Quicksand-Regular'; font-size:3.2014px;">aliquam </tspan></text>
	</g>
	<g>
		<rect x="227.943" y="233.521" style="fill:none;" width="66.081" height="17.209"/>
		<text transform="matrix(1 0 0 1 227.9428 235.8908)"><tspan x="0" y="0" style="fill:#9D9C9C; font-family:'Quicksand-Regular'; font-size:3.2014px;">Lorem ipsum dolor sit amet, consectetuer </tspan><tspan x="0" y="3.842" style="fill:#9D9C9C; font-family:'Quicksand-Regular'; font-size:3.2014px;">adipiscing elit, sed diam nonummy nibh </tspan><tspan x="0" y="7.683" style="fill:#9D9C9C; font-family:'Quicksand-Regular'; font-size:3.2014px;">euismod tincidunt ut laoreet dolore magna </tspan><tspan x="0" y="11.524" style="fill:#9D9C9C; font-family:'Quicksand-Regular'; font-size:3.2014px;">aliquam </tspan></text>
	</g>
	<g>
		<rect x="225.651" y="364.675" style="fill:none;" width="66.08" height="17.209"/>
		<text transform="matrix(1 0 0 1 225.6508 367.0441)"><tspan x="0" y="0" style="fill:#9D9C9C; font-family:'Quicksand-Regular'; font-size:3.2014px;">Lorem ipsum dolor sit amet, consectetuer </tspan><tspan x="0" y="3.842" style="fill:#9D9C9C; font-family:'Quicksand-Regular'; font-size:3.2014px;">adipiscing elit, sed diam nonummy nibh </tspan><tspan x="0" y="7.683" style="fill:#9D9C9C; font-family:'Quicksand-Regular'; font-size:3.2014px;">euismod tincidunt ut laoreet dolore magna </tspan><tspan x="0" y="11.524" style="fill:#9D9C9C; font-family:'Quicksand-Regular'; font-size:3.2014px;">aliquam </tspan></text>
	</g>
	<g>
		<rect x="362.971" y="309.034" style="fill:none;" width="66.08" height="17.209"/>
		<text transform="matrix(1 0 0 1 362.9701 311.4025)"><tspan x="0" y="0" style="fill:#9D9C9C; font-family:'Quicksand-Regular'; font-size:3.2014px;">Lorem ipsum dolor sit amet, consectetuer </tspan><tspan x="0" y="3.842" style="fill:#9D9C9C; font-family:'Quicksand-Regular'; font-size:3.2014px;">adipiscing elit, sed diam nonummy nibh </tspan><tspan x="0" y="7.683" style="fill:#9D9C9C; font-family:'Quicksand-Regular'; font-size:3.2014px;">euismod tincidunt ut laoreet dolore magna </tspan><tspan x="0" y="11.524" style="fill:#9D9C9C; font-family:'Quicksand-Regular'; font-size:3.2014px;">aliquam </tspan></text>
	</g>
	<g>
		<rect x="320.231" y="447.299" style="fill:none;" width="66.08" height="17.209"/>
		<text transform="matrix(1 0 0 1 320.2309 449.6681)"><tspan x="0" y="0" style="fill:#9D9C9C; font-family:'Quicksand-Regular'; font-size:3.2014px;">Lorem ipsum dolor sit amet, consectetuer </tspan><tspan x="0" y="3.842" style="fill:#9D9C9C; font-family:'Quicksand-Regular'; font-size:3.2014px;">adipiscing elit, sed diam nonummy nibh </tspan><tspan x="0" y="7.683" style="fill:#9D9C9C; font-family:'Quicksand-Regular'; font-size:3.2014px;">euismod tincidunt ut laoreet dolore magna </tspan><tspan x="0" y="11.524" style="fill:#9D9C9C; font-family:'Quicksand-Regular'; font-size:3.2014px;">aliquam </tspan></text>
	</g>
	<g>
		<rect x="471.246" y="170.766" style="fill:none;" width="66.08" height="17.209"/>
		<text transform="matrix(1 0 0 1 471.2455 173.1359)"><tspan x="0" y="0" style="fill:#9D9C9C; font-family:'Quicksand-Regular'; font-size:3.2014px;">Lorem ipsum dolor sit amet, consectetuer </tspan><tspan x="0" y="3.842" style="fill:#9D9C9C; font-family:'Quicksand-Regular'; font-size:3.2014px;">adipiscing elit, sed diam nonummy nibh </tspan><tspan x="0" y="7.683" style="fill:#9D9C9C; font-family:'Quicksand-Regular'; font-size:3.2014px;">euismod tincidunt ut laoreet dolore magna </tspan><tspan x="0" y="11.524" style="fill:#9D9C9C; font-family:'Quicksand-Regular'; font-size:3.2014px;">aliquam </tspan></text>
	</g>
	<g>
		<rect x="500.496" y="284.956" style="fill:none;" width="66.08" height="17.209"/>
		<text transform="matrix(1 0 0 1 500.4955 287.3253)"><tspan x="0" y="0" style="fill:#9D9C9C; font-family:'Quicksand-Regular'; font-size:3.2014px;">Lorem ipsum dolor sit amet, consectetuer </tspan><tspan x="0" y="3.842" style="fill:#9D9C9C; font-family:'Quicksand-Regular'; font-size:3.2014px;">adipiscing elit, sed diam nonummy nibh </tspan><tspan x="0" y="7.683" style="fill:#9D9C9C; font-family:'Quicksand-Regular'; font-size:3.2014px;">euismod tincidunt ut laoreet dolore magna </tspan><tspan x="0" y="11.524" style="fill:#9D9C9C; font-family:'Quicksand-Regular'; font-size:3.2014px;">aliquam </tspan></text>
	</g>
	<g>
		<rect x="635.891" y="309.034" style="fill:none;" width="66.08" height="17.209"/>
		<text transform="matrix(1 0 0 1 635.89 311.4025)"><tspan x="0" y="0" style="fill:#9D9C9C; font-family:'Quicksand-Regular'; font-size:3.2014px;">Lorem ipsum dolor sit amet, consectetuer </tspan><tspan x="0" y="3.842" style="fill:#9D9C9C; font-family:'Quicksand-Regular'; font-size:3.2014px;">adipiscing elit, sed diam nonummy nibh </tspan><tspan x="0" y="7.683" style="fill:#9D9C9C; font-family:'Quicksand-Regular'; font-size:3.2014px;">euismod tincidunt ut laoreet dolore magna </tspan><tspan x="0" y="11.524" style="fill:#9D9C9C; font-family:'Quicksand-Regular'; font-size:3.2014px;">aliquam </tspan></text>
	</g>
	<g>
		<rect x="411.478" y="435.001" style="fill:none;" width="66.08" height="17.209"/>
		<text transform="matrix(1 0 0 1 416.3725 437.3703)"><tspan x="0" y="0" style="fill:#9D9C9C; font-family:'Quicksand-Regular'; font-size:3.2014px;">Lorem ipsum dolor sit amet, consectetuer </tspan><tspan x="3.058" y="3.842" style="fill:#9D9C9C; font-family:'Quicksand-Regular'; font-size:3.2014px;">adipiscing elit, sed diam nonummy nibh </tspan><tspan x="-1.805" y="7.683" style="fill:#9D9C9C; font-family:'Quicksand-Regular'; font-size:3.2014px;">euismod tincidunt ut laoreet dolore magna </tspan><tspan x="49.242" y="11.524" style="fill:#9D9C9C; font-family:'Quicksand-Regular'; font-size:3.2014px;">aliquam </tspan></text>
	</g>
	<g>
		<rect x="38.001" y="120.844" style="fill:none;" width="114.78" height="14.071"/>
		<text transform="matrix(1 0 0 1 38.0014 125.1616)"><tspan x="0" y="0" style="fill:#9D9C9C; font-family:'Quicksand-Regular'; font-size:5.8351px;">Lorem ipsum dolor sit amet, consectetuer </tspan><tspan x="0" y="7.002" style="fill:#9D9C9C; font-family:'Quicksand-Regular'; font-size:5.8351px;">adipiscing elit, sed diam nonummy nibh </tspan></text>
	</g>
	<g>
		<rect x="179.937" y="120.844" style="fill:none;" width="114.78" height="14.071"/>
		<text transform="matrix(1 0 0 1 179.9377 125.1616)"><tspan x="0" y="0" style="fill:#9D9C9C; font-family:'Quicksand-Regular'; font-size:5.8351px;">Lorem ipsum dolor sit amet, consectetuer </tspan><tspan x="0" y="7.002" style="fill:#9D9C9C; font-family:'Quicksand-Regular'; font-size:5.8351px;">adipiscing elit, sed diam nonummy nibh </tspan></text>
	</g>
	<g>
		<rect x="315.912" y="120.844" style="fill:none;" width="114.78" height="14.071"/>
		<text transform="matrix(1 0 0 1 315.9112 125.1616)"><tspan x="0" y="0" style="fill:#9D9C9C; font-family:'Quicksand-Regular'; font-size:5.8351px;">Lorem ipsum dolor sit amet, consectetuer </tspan><tspan x="0" y="7.002" style="fill:#9D9C9C; font-family:'Quicksand-Regular'; font-size:5.8351px;">adipiscing elit, sed diam nonummy nibh </tspan></text>
	</g>
	<g>
		<rect x="449.894" y="120.844" style="fill:none;" width="114.78" height="14.071"/>
		<text transform="matrix(1 0 0 1 449.8939 125.1616)"><tspan x="0" y="0" style="fill:#9D9C9C; font-family:'Quicksand-Regular'; font-size:5.8351px;">Lorem ipsum dolor sit amet, consectetuer </tspan><tspan x="0" y="7.002" style="fill:#9D9C9C; font-family:'Quicksand-Regular'; font-size:5.8351px;">adipiscing elit, sed diam nonummy nibh </tspan></text>
	</g>
	<g>
		<rect x="587.191" y="120.844" style="fill:none;" width="114.78" height="14.071"/>
		<text transform="matrix(1 0 0 1 587.1905 125.1616)"><tspan x="0" y="0" style="fill:#9D9C9C; font-family:'Quicksand-Regular'; font-size:5.8351px;">Lorem ipsum dolor sit amet, consectetuer </tspan><tspan x="0" y="7.002" style="fill:#9D9C9C; font-family:'Quicksand-Regular'; font-size:5.8351px;">adipiscing elit, sed diam nonummy nibh </tspan></text>
	</g>
	<polygon style="fill:#EBEFF2;" points="647.146,241.259 585.41,212.166 641.473,173.248 	"/>
	<polygon style="fill:#EBEFF2;" points="659.759,243.881 655.879,207.599 689.24,222.379 	"/>
	<polygon style="fill:#EBEFF2;" points="668.931,420.264 642.902,390.85 681.39,383.015 	"/>
	<polygon style="fill:#EBEFF2;" points="108.293,385.626 55.295,410.615 60.153,352.223 	"/>
	<polygon style="fill:#EBEFF2;" points="125.736,439.432 89.01,413.752 129.613,394.786 	"/>
	<polygon style="fill:#EBEFF2;" points="67.014,450.097 69.799,416.634 97.386,435.776 	"/>
	<polygon style="fill:#EBEFF2;" points="274.26,180.227 257.727,165.177 279.028,158.385 	"/>
	<polygon style="fill:#EBEFF2;" points="208.22,72.208 166.981,51.992 205.109,26.386 	"/>
	<polygon style="fill:#EBEFF2;" points="150.186,54.507 147.387,34.568 166.054,42.114 	"/>
	<polygon style="fill:#EBEFF2;" points="553.501,66.705 565.9,26.528 594.495,57.354 	"/>
	<polygon style="fill:#EBEFF2;" points="610.861,57.868 593.808,35.768 621.474,32.049 	"/>
</g>
</svg>
